<?xml version="1.0" encoding="utf-8"?>
<!-- Generator: Adobe Illustrator 25.4.1, SVG Export Plug-In . SVG Version: 6.00 Build 0)  -->
<svg version="1.1" id="Layer_1" xmlns="http://www.w3.org/2000/svg" xmlns:xlink="http://www.w3.org/1999/xlink" x="0px" y="0px"
	 viewBox="0 0 1118 195" style="enable-background:new 0 0 1118 195;" xml:space="preserve">
<g>
	<g>
		<path d="M13.43,20.47h68.31c40.3,0,66.26,20.72,66.26,56.01v0.46c0,37.57-28.92,57.38-68.53,57.38H57.61v45.54H13.43V20.47z
			 M78.55,99.71c15.71,0,25.27-8.2,25.27-20.72v-0.46c0-13.66-9.56-20.95-25.5-20.95H57.61v42.12H78.55z"/>
	</g>
	<g>
		<path d="M161.2,100.62v-0.46c0-46.45,36.43-82.88,85.84-82.88c28.01,0,47.81,8.65,64.66,23.22L285.74,71.7
			c-11.38-9.56-22.77-15.03-38.48-15.03c-23,0-40.76,19.35-40.76,43.72v0.46c0,25.73,17.99,44.17,43.26,44.17
			c10.7,0,18.9-2.28,25.5-6.6v-19.35h-31.42V86.73h73.32v71.72c-16.85,13.89-40.3,24.59-69.22,24.59
			C198.31,183.04,161.2,148.89,161.2,100.62z"/>
	</g>
</g>
<g>
	<g>
		<path d="M398.54,180.04h-62.25V17.28h63.16c55.66,0,91.62,31.58,91.62,80.47v0.46c0,23.6-8.46,43.85-24.45,58.56
			C450.06,171.99,426.52,180.04,398.54,180.04z M339.65,176.67h58.88c27.12,0,49.88-7.74,65.8-22.38
			c15.28-14.05,23.36-33.45,23.36-56.08v-0.46c0-46.83-34.64-77.1-88.25-77.1h-59.79V176.67z M400.13,140.87h-19.67V56.45h19.67
			c28.14,0,45.63,16.09,45.63,41.99v0.46C445.76,124.78,428.27,140.87,400.13,140.87z M383.83,137.5h16.3
			c26.46,0,42.26-14.44,42.26-38.62v-0.46c0-23.82-16.19-38.62-42.26-38.62h-16.3V137.5z"/>
	</g>
	<g>
		<path d="M643.16,180.04h-132.7V17.28h131.56v40.94h-84.47v20.77h76.5v38.21h-76.5v21.9h85.61V180.04z M513.83,176.67h125.96v-34.2
			h-85.61v-28.64h76.5V82.36h-76.5v-27.5h84.47v-34.2H513.83V176.67z"/>
	</g>
	<g>
		<path d="M832.08,180.04h-51.03l-11.61-28.46h-59.2l-11.38,28.46h-50.13l69.28-163.89h44.81l0.44,1.03L832.08,180.04z
			 M783.31,176.67H827L760.57,19.51h-40.35L653.8,176.67h42.77l11.38-28.46h63.75L783.31,176.67z M760.29,117.19h-40.7l20.48-51.59
			L760.29,117.19z M724.55,113.82h30.8l-15.3-39.04L724.55,113.82z"/>
	</g>
	<g>
		<path d="M968.06,180.04H843.33V17.28h47.54v120.68h77.19V180.04z M846.7,176.67h117.99v-35.34H887.5V20.65h-40.8V176.67z"/>
	</g>
	<g>
		<path d="M1047.88,182.77c-29.55,0-56.47-9.53-75.81-26.84l-1.21-1.09l26.69-31.88l1.29,1.03c15.62,12.45,32.65,18.76,50.64,18.76
			c14.38,0,16.53-5.79,16.53-9.24v-0.46c0-5.21-3.83-8.58-25.56-13.61c-32.36-7.38-61.41-16.9-61.41-51.73v-0.46
			c0-31.51,25.47-52.69,63.39-52.69c26.77,0,48.56,7.05,66.63,21.55l1.24,0.99l-23.97,33.86l-1.37-0.97
			c-14.13-9.93-29.63-15.4-43.66-15.4c-8.79,0-14.25,3.28-14.25,8.56v0.46c0,5.82,3.96,8.79,26.24,13.84
			c36.45,7.92,60.74,19.68,60.74,51.28v0.46c0,16.35-6.34,30-18.34,39.49C1083.98,177.89,1067.46,182.77,1047.88,182.77z
			 M975.54,154.49c18.62,16.07,44.23,24.91,72.34,24.91c38.71,0,62.75-19.25,62.75-50.23v-0.46c0-29.35-23.23-40.41-58.1-47.99
			c-21.31-4.83-28.88-8.15-28.88-17.13v-0.46c0-8.81,9.49-11.93,17.62-11.93c14.25,0,29.9,5.34,44.21,15.06l20.2-28.53
			c-17.2-13.34-37.92-19.82-63.28-19.82c-35.9,0-60.02,19.82-60.02,49.32v0.46c0,32.4,26.63,41.11,58.8,48.45
			c21.6,5,28.18,8.95,28.18,16.9v0.46c0,8.02-7.25,12.61-19.9,12.61c-18.27,0-35.57-6.21-51.44-18.48L975.54,154.49z"/>
	</g>
</g>
</svg>
